<?xml version="1.0" standalone="no"?>
<!DOCTYPE svg PUBLIC "-//W3C//DTD SVG 20010904//EN"
 "http://www.w3.org/TR/2001/REC-SVG-20010904/DTD/svg10.dtd">
<svg version="1.0" xmlns="http://www.w3.org/2000/svg"
 width="700.000000pt" height="700.000000pt" viewBox="0 0 700.000000 700.000000"
 preserveAspectRatio="xMidYMid meet">
<metadata>
Created by potrace 1.14, written by Peter Selinger 2001-2017
</metadata>
<g transform="translate(0.000000,700.000000) scale(0.100000,-0.100000)"
fill="#000000" stroke="none">
<path d="M489 6123 c0 -59 -1 -1051 -3 -2203 l-2 -2095 25 -25 c15 -14 125
-109 246 -210 121 -101 225 -189 231 -195 6 -5 32 -28 59 -50 162 -135 354
-297 394 -333 33 -30 181 -101 296 -142 255 -89 536 -134 840 -134 119 1 303
11 315 19 3 2 28 6 55 9 28 3 66 10 85 14 19 5 38 9 43 10 118 23 265 77 480
176 190 88 229 106 232 106 2 0 32 13 67 29 35 16 180 82 323 146 143 65 298
135 343 156 46 22 85 39 87 39 2 0 265 117 390 175 115 52 477 216 506 228 19
8 63 28 99 45 36 16 157 71 270 122 378 170 605 272 665 300 303 137 295 133
277 145 -9 7 -136 82 -282 167 -389 228 -428 251 -468 276 -20 12 -44 25 -52
29 -8 4 -42 24 -74 44 -42 27 -64 35 -75 29 -9 -5 -43 -21 -76 -36 -90 -39
-454 -202 -505 -226 -25 -11 -139 -63 -255 -115 -115 -53 -235 -106 -265 -120
-30 -14 -73 -33 -95 -43 -22 -9 -62 -28 -90 -40 -27 -13 -74 -33 -102 -46 -29
-13 -77 -35 -105 -48 -29 -13 -102 -47 -163 -74 -60 -28 -135 -61 -165 -75
-30 -14 -100 -45 -155 -70 -307 -137 -398 -178 -468 -211 -43 -20 -80 -36 -82
-36 -2 0 -43 -18 -92 -41 -103 -48 -121 -56 -313 -142 -80 -36 -170 -76 -200
-90 -45 -21 -335 -152 -530 -239 -25 -11 -70 -31 -100 -45 -30 -14 -100 -45
-155 -70 -104 -47 -166 -75 -250 -113 -27 -13 -79 -36 -115 -52 -36 -17 -76
-34 -90 -40 -14 -5 -27 -10 -29 -11 -2 -1 -4 987 -4 2195 0 1208 -3 2200 -6
2205 -6 8 -67 61 -201 173 -29 25 -58 50 -64 55 -6 6 -51 44 -101 85 -49 41
-95 79 -101 85 -14 12 -44 37 -114 95 -30 25 -57 47 -60 50 -3 3 -76 65 -162
138 l-158 133 -1 -108z"/>
<path d="M1809 4263 c0 -1336 0 -1807 0 -1823 1 -16 141 -130 159 -130 6 0 12
-4 14 -8 5 -12 93 -63 173 -101 145 -68 296 -88 396 -51 l45 17 54 -49 c30
-27 82 -67 117 -89 l62 -41 203 92 c112 51 221 100 243 110 102 46 367 166
433 196 41 19 75 34 77 34 2 0 36 15 77 34 40 19 188 86 328 149 579 261 778
351 835 377 33 15 80 36 105 48 25 11 117 52 205 92 88 40 169 76 179 80 16 5
-5 21 -100 77 -261 154 -370 218 -385 228 -9 6 -34 20 -55 32 -22 11 -120 69
-219 127 -99 59 -184 104 -190 102 -17 -7 -637 -287 -690 -311 -74 -34 -174
-79 -230 -105 -27 -12 -74 -33 -102 -46 -29 -13 -79 -36 -110 -50 -32 -14 -74
-33 -93 -42 -19 -9 -37 -17 -40 -17 -3 -1 -30 -13 -60 -27 -30 -14 -120 -55
-200 -90 -80 -36 -170 -77 -200 -91 l-55 -26 -2 22 c-1 12 -4 132 -6 267 -3
135 -8 258 -11 274 -4 16 -14 59 -22 95 -22 98 -22 99 -45 170 -119 364 -356
770 -629 1075 -63 71 -243 246 -252 246 -4 0 -8 -381 -9 -847z"/>
</g>
</svg>
